<svg xmlns="http://www.w3.org/2000/svg" version="1.1" xmlns:xlink="http://www.w3.org/1999/xlink" xmlns:svgjs="http://svgjs.dev/svgjs" width="2000" height="510" viewBox="0 0 2000 510"><g transform="matrix(1,0,0,1,-1.2121212121212466,-0.9629068328664516)"><svg viewBox="0 0 396 101" data-background-color="#ffffff" preserveAspectRatio="xMidYMid meet" height="510" width="2000" xmlns="http://www.w3.org/2000/svg" xmlns:xlink="http://www.w3.org/1999/xlink"><g id="tight-bounds" transform="matrix(1,0,0,1,0.2400000000000091,0.19069331395982658)"><svg viewBox="0 0 395.52 100.6186133720803" height="100.6186133720803" width="395.52"><g><svg viewBox="0 0 594.5548497700838 151.25223644192798" height="100.6186133720803" width="395.52"><g><rect width="5.869871500162564" height="130.03301552514907" x="177.79882251033345" y="10.609610458389454" fill="#000000" opacity="1" stroke-width="0" stroke="transparent" fill-opacity="1" class="rect-qz-0" data-fill-palette-color="primary" rx="1%" id="qz-0" data-palette-color="#fe4f32"></rect></g><g transform="matrix(1,0,0,1,199.03484977008387,21.445695085485212)"><svg viewBox="0 0 395.52 108.36084627095755" height="108.36084627095755" width="395.52"><g id="textblocktransform"><svg viewBox="0 0 395.52 108.36084627095755" height="108.36084627095755" width="395.52" id="textblock"><g><svg viewBox="0 0 395.52 65.08986834573554" height="65.08986834573554" width="395.52"><g transform="matrix(1,0,0,1,0,0)"><svg width="395.52" viewBox="5 -28.75 174.69 28.75" height="65.08986834573554" data-palette-color="#fe4f32"><path d="M5-28.75L5-28.75 21-28.75 21-22.85 11.3-22.85 11.3-17.2 21-17.2 21-11.35 11.3-11.35 11.3 0 5 0 5-28.75ZM39.45 0L39.45 0 39.45-11.9 34.75-14.35 39.45-16.6 39.45-25.3 33.55-28.75 23.25-28.75 23.25-22.85 33.15-22.85 33.15-17.2 23.25-17.2 23.25-11.35 33.15-11.35 33.15 0 39.45 0ZM46.95-25.3L46.95-25.3 52.65-28.75 62.95-28.75 62.95-23.1 53.25-23.1 53.25-17.2 62.95-17.2 62.95-11.5 53.25-11.5 53.25 0 46.95 0 46.95-25.3ZM81.4-25.3L81.4-25.3 75.5-28.75 65.2-28.75 65.2-23.1 75.1-23.1 75.1-17.2 65.2-17.2 65.2-11.5 75.1-11.5 75.1 0 81.4 0 81.4-25.3ZM90.4-28.75L90.4-28.75 106.6-28.75 106.6-23.1 96.9-23.1 96.9-17.2 106.6-17.2 106.6-11.35 96.9-11.35 96.9 0 90.4 0 90.4-28.75ZM125.05-14.75L125.05-14.75 125.05-25.3 119.2-28.75 108.85-28.75 108.85-23.1 118.55-23.1 118.55-17.2 108.85-17.2 108.85-11.35 119.2-11.35 125.05-14.75ZM129.94-28.75L129.94-28.75 136.24-28.75 136.24 0 129.94 0 129.94-28.75ZM145.24 0L145.24-28.75 161.24-28.75 161.24-23.1 151.54-23.1 151.54-5.85 161.24-5.85 161.24 0 145.24 0ZM179.69-3.4L179.69-25.3 174.04-28.75 163.69-28.75 163.69-23.1 173.39-23.1 173.39-5.85 163.69-5.85 163.69 0 174.04 0 179.69-3.4Z" opacity="1" transform="matrix(1,0,0,1,0,0)" fill="#000000" class="wordmark-text-0" data-fill-palette-color="primary" id="text-0"></path></svg></g></svg></g><g transform="matrix(1,0,0,1,0,80.45602410532341)"><svg viewBox="0 0 375.74399999999997 27.90482216563414" height="27.90482216563414" width="375.74399999999997"><g transform="matrix(1,0,0,1,0,0)"><svg width="375.74399999999997" viewBox="2.86 -37.7 642.29 47.71" height="27.90482216563414" data-palette-color="#fe4f32"><path d="M9.84-13.99L23.85-13.99 23.85-21Q23.85-22.44 23.3-23.72 22.75-25 21.8-25.95 20.85-26.9 19.57-27.45 18.29-28 16.85-28L16.85-28Q15.41-28 14.12-27.45 12.84-26.9 11.89-25.95 10.94-25 10.39-23.72 9.84-22.44 9.84-21L9.84-21 9.84-13.99ZM30.86-21L30.86 0 23.85 0 23.85-7.01 9.84-7.01 9.84 0 2.86 0 2.86-21Q2.86-23.9 3.96-26.45 5.05-29 6.95-30.91 8.84-32.81 11.39-33.91 13.94-35.01 16.85-35.01L16.85-35.01Q19.75-35.01 22.3-33.91 24.85-32.81 26.76-30.91 28.66-29 29.76-26.45 30.86-23.9 30.86-21L30.86-21ZM42.89-14.94L42.89 0 36.23 0 36.23-26.15 37.84-26.15 40.04-23.61Q41.65-25.07 43.69-25.87 45.73-26.66 47.95-26.66L47.95-26.66Q50.34-26.66 52.46-25.74 54.59-24.83 56.17-23.23 57.76-21.63 58.68-19.49 59.59-17.36 59.59-14.94L59.59-14.94 59.59 0 52.93 0 52.93-14.94Q52.93-15.97 52.54-16.88 52.15-17.8 51.46-18.48 50.78-19.17 49.88-19.56 48.97-19.95 47.95-19.95L47.95-19.95Q46.9-19.95 45.97-19.56 45.04-19.17 44.36-18.48 43.67-17.8 43.28-16.88 42.89-15.97 42.89-14.94L42.89-14.94ZM73.85 10.01L70.43 9.96 70.43 3.25 74.14 3.3Q75.12 3.3 76.02 2.98 76.92 2.66 77.69 2.1 78.46 1.54 79.05 0.77 79.63 0 80-0.9L80-0.9Q78.9-0.44 77.77 0.02 76.63 0.49 75.48 0.49L75.48 0.49Q73.07 0.49 70.94-0.37 68.82-1.22 67.22-2.8 65.62-4.37 64.7-6.63 63.79-8.89 63.79-11.69L63.79-11.69 63.79-26.15 70.43-26.15 70.43-11.69Q70.43-10.3 70.83-9.27 71.24-8.23 71.92-7.53 72.6-6.84 73.52-6.49 74.43-6.15 75.48-6.15L75.48-6.15Q76.51-6.15 77.42-6.63 78.34-7.1 79.02-7.89 79.71-8.67 80.1-9.66 80.49-10.64 80.49-11.69L80.49-11.69 80.49-26.15 87.2-26.15 87.2-3.3Q87.18-0.54 86.13 1.88 85.08 4.3 83.26 6.1 81.44 7.91 79.02 8.96 76.61 10.01 73.85 10.01L73.85 10.01ZM110.44 0L105.39 0Q102.97 0 100.85-0.92 98.72-1.83 97.12-3.43 95.52-5.03 94.61-7.15 93.69-9.28 93.69-11.69L93.69-11.69 93.69-19.46 90.45-19.46 90.45-26.1 93.69-26.1 93.69-36.55 100.33-36.55 100.33-26.1 110.44-26.1 110.44-19.46 100.33-19.46 100.33-11.69Q100.33-10.64 100.72-9.73 101.12-8.81 101.8-8.13 102.48-7.45 103.41-7.04 104.34-6.64 105.39-6.64L105.39-6.64 110.44-6.64 110.44 0ZM120.84-14.94L120.84 0 114.17 0 114.17-36.55 120.84-36.55 120.84-25Q122.04-25.9 123.31-26.28 124.57-26.66 125.89-26.66L125.89-26.66Q128.31-26.66 130.43-25.74 132.56-24.83 134.13-23.23 135.71-21.63 136.62-19.49 137.54-17.36 137.54-14.94L137.54-14.94 137.54 0 130.82 0 130.82-14.94 130.87-14.94Q130.87-15.97 130.48-16.88 130.09-17.8 129.41-18.48 128.73-19.17 127.82-19.56 126.92-19.95 125.89-19.95L125.89-19.95Q124.84-19.95 123.92-19.56 122.99-19.17 122.3-18.48 121.62-17.8 121.23-16.88 120.84-15.97 120.84-14.94L120.84-14.94ZM150.13-33.25L150.13-33.25Q150.13-32.32 149.78-31.52 149.43-30.71 148.82-30.11 148.21-29.52 147.39-29.16 146.57-28.81 145.64-28.81L145.64-28.81Q144.71-28.81 143.9-29.16 143.08-29.52 142.48-30.11 141.88-30.71 141.53-31.52 141.17-32.32 141.17-33.25L141.17-33.25Q141.17-34.16 141.53-34.97 141.88-35.79 142.48-36.39 143.08-36.99 143.9-37.34 144.71-37.7 145.64-37.7L145.64-37.7Q146.57-37.7 147.39-37.34 148.21-36.99 148.82-36.39 149.43-35.79 149.78-34.97 150.13-34.16 150.13-33.25ZM148.99-26.15L148.99 0 142.27 0 142.27-26.15 148.99-26.15ZM160.73-14.94L160.73 0 154.06 0 154.06-26.15 155.67-26.15 157.87-23.61Q159.48-25.07 161.52-25.87 163.56-26.66 165.78-26.66L165.78-26.66Q168.17-26.66 170.3-25.74 172.42-24.83 174.01-23.23 175.6-21.63 176.51-19.49 177.43-17.36 177.43-14.94L177.43-14.94 177.43 0 170.76 0 170.76-14.94Q170.76-15.97 170.37-16.88 169.98-17.8 169.3-18.48 168.61-19.17 167.71-19.56 166.81-19.95 165.78-19.95L165.78-19.95Q164.73-19.95 163.8-19.56 162.88-19.17 162.19-18.48 161.51-17.8 161.12-16.88 160.73-15.97 160.73-14.94L160.73-14.94ZM200.76-13.31L200.76-13.31Q200.76-14.67 200.24-15.95 199.71-17.24 198.81-18.23 197.91-19.21 196.7-19.81 195.49-20.41 194.12-20.41L194.12-20.41Q192.76-20.41 191.55-19.95 190.34-19.48 189.45-18.58 188.56-17.68 188.04-16.35 187.53-15.01 187.53-13.31L187.53-13.31Q187.53-11.67 188.04-10.36 188.56-9.06 189.45-8.13 190.34-7.2 191.55-6.7 192.76-6.2 194.12-6.2L194.12-6.2Q195.49-6.2 196.7-6.8 197.91-7.4 198.81-8.39 199.71-9.38 200.24-10.66 200.76-11.94 200.76-13.31ZM207.48-26.1L207.48-3.3Q207.48-0.54 206.43 1.88 205.38 4.3 203.56 6.1 201.74 7.91 199.31 8.96 196.88 10.01 194.12 10.01L194.12 10.01 190.78 9.96 190.78 3.3 194.07 3.34Q195.64 3.34 196.74 2.94 197.83 2.54 198.59 1.84 199.35 1.15 199.8 0.24 200.25-0.66 200.52-1.66L200.52-1.66Q200.13-1.03 199.4-0.62 198.66-0.22 197.77 0.04 196.88 0.29 195.92 0.39 194.95 0.49 194.12 0.49L194.12 0.49Q191.36 0.49 188.94-0.46 186.51-1.42 184.69-3.19 182.87-4.96 181.82-7.52 180.77-10.08 180.77-13.31L180.77-13.31Q180.77-16.26 181.82-18.8 182.87-21.34 184.69-23.19 186.51-25.05 188.94-26.1 191.36-27.15 194.12-27.15L194.12-27.15Q195.39-27.15 196.64-26.83 197.88-26.51 199.05-25.95 200.23-25.39 201.29-24.63 202.35-23.88 203.28-23L203.28-23 205.87-26.1 207.48-26.1ZM249.39-20.95L249.39-20.95 244.51-16.04Q244.14-17.07 243.51-17.88 242.87-18.7 242.08-19.26 241.29-19.82 240.36-20.12 239.43-20.41 238.45-20.41L238.45-20.41Q237.09-20.41 235.88-19.85 234.67-19.29 233.78-18.27 232.89-17.26 232.37-15.87 231.86-14.48 231.86-12.79L231.86-12.79Q231.86-11.43 232.37-10.23 232.89-9.03 233.78-8.13 234.67-7.23 235.88-6.71 237.09-6.2 238.45-6.2L238.45-6.2Q239.43-6.2 240.33-6.47 241.24-6.74 242.03-7.24 242.82-7.74 243.45-8.46 244.07-9.18 244.46-10.06L244.46-10.06 249.34-5.15Q248.42-3.83 247.21-2.78 246-1.73 244.59-1 243.19-0.27 241.64 0.11 240.09 0.49 238.45 0.49L238.45 0.49Q235.7 0.49 233.27-0.55 230.84-1.59 229.02-3.39 227.2-5.2 226.15-7.62 225.1-10.03 225.1-12.79L225.1-12.79Q225.1-15.8 226.15-18.41 227.2-21.02 229.02-22.96 230.84-24.9 233.27-26.03 235.7-27.15 238.45-27.15L238.45-27.15Q240.09-27.15 241.66-26.73 243.24-26.32 244.67-25.52 246.1-24.73 247.3-23.58 248.51-22.44 249.39-20.95ZM277.56-26.1L277.56 0 275.95 0 273.36-3.59Q272.41-2.73 271.35-1.99 270.29-1.25 269.12-0.7 267.94-0.15 266.71 0.17 265.48 0.49 264.21 0.49L264.21 0.49Q261.45 0.49 259.02-0.44 256.59-1.37 254.77-3.14 252.95-4.91 251.9-7.47 250.85-10.03 250.85-13.31L250.85-13.31Q250.85-16.36 251.9-18.91 252.95-21.46 254.77-23.29 256.59-25.12 259.02-26.14 261.45-27.15 264.21-27.15L264.21-27.15Q265.48-27.15 266.72-26.83 267.97-26.51 269.14-25.95 270.31-25.39 271.37-24.63 272.44-23.88 273.36-23L273.36-23 275.95-26.1 277.56-26.1ZM270.85-13.31L270.85-13.31Q270.85-14.67 270.32-15.95 269.8-17.24 268.9-18.23 267.99-19.21 266.78-19.81 265.58-20.41 264.21-20.41L264.21-20.41Q262.84-20.41 261.63-19.95 260.42-19.48 259.53-18.58 258.64-17.68 258.13-16.35 257.62-15.01 257.62-13.31L257.62-13.31Q257.62-11.6 258.13-10.27 258.64-8.94 259.53-8.03 260.42-7.13 261.63-6.67 262.84-6.2 264.21-6.2L264.21-6.2Q265.58-6.2 266.78-6.8 267.99-7.4 268.9-8.39 269.8-9.38 270.32-10.66 270.85-11.94 270.85-13.31ZM289.3-14.94L289.3 0 282.64 0 282.64-26.15 284.25-26.15 286.45-23.61Q288.06-25.07 290.1-25.87 292.14-26.66 294.36-26.66L294.36-26.66Q296.75-26.66 298.87-25.74 301-24.83 302.58-23.23 304.17-21.63 305.09-19.49 306-17.36 306-14.94L306-14.94 306 0 299.34 0 299.34-14.94Q299.34-15.97 298.95-16.88 298.56-17.8 297.87-18.48 297.19-19.17 296.29-19.56 295.38-19.95 294.36-19.95L294.36-19.95Q293.31-19.95 292.38-19.56 291.45-19.17 290.77-18.48 290.08-17.8 289.69-16.88 289.3-15.97 289.3-14.94L289.3-14.94ZM350.9-13.31L350.9-13.31Q350.9-10.23 349.85-7.69 348.8-5.15 346.99-3.33 345.18-1.51 342.75-0.51 340.32 0.49 337.54 0.49L337.54 0.49Q334.78 0.49 332.35-0.54 329.92-1.56 328.1-3.39 326.29-5.22 325.24-7.75 324.19-10.28 324.19-13.31L324.19-13.31 324.19-36.55 330.88-36.55 330.88-24.34Q331.41-25.02 332.18-25.56 332.95-26.1 333.84-26.44 334.73-26.78 335.69-26.97 336.64-27.15 337.54-27.15L337.54-27.15Q340.32-27.15 342.75-26.11 345.18-25.07 346.99-23.22 348.8-21.36 349.85-18.84 350.9-16.31 350.9-13.31ZM344.18-13.31L344.18-13.31Q344.18-14.82 343.66-16.13 343.13-17.43 342.23-18.38 341.32-19.34 340.12-19.87 338.91-20.41 337.54-20.41L337.54-20.41Q336.17-20.41 334.97-19.81 333.76-19.21 332.85-18.23 331.95-17.24 331.44-15.95 330.92-14.67 330.92-13.31L330.92-13.31Q330.92-11.79 331.44-10.5 331.95-9.2 332.85-8.25 333.76-7.3 334.97-6.75 336.17-6.2 337.54-6.2L337.54-6.2Q338.91-6.2 340.12-6.75 341.32-7.3 342.23-8.25 343.13-9.2 343.66-10.5 344.18-11.79 344.18-13.31ZM377.48-21.46L364.98-6.4Q365.37-6.27 365.76-6.24 366.15-6.2 366.54-6.2L366.54-6.2Q367.52-6.2 368.42-6.47 369.33-6.74 370.12-7.24 370.91-7.74 371.53-8.46 372.16-9.18 372.55-10.06L372.55-10.06 377.43-5.15Q376.5-3.83 375.29-2.78 374.09-1.73 372.68-1 371.28-0.27 369.73 0.11 368.18 0.49 366.54 0.49L366.54 0.49Q363.78 0.49 361.35-0.54 358.92-1.56 357.11-3.39 355.29-5.22 354.24-7.75 353.19-10.28 353.19-13.31L353.19-13.31Q353.19-16.41 354.24-18.97 355.29-21.53 357.11-23.34 358.92-25.15 361.35-26.15 363.78-27.15 366.54-27.15L366.54-27.15Q368.18-27.15 369.74-26.76 371.3-26.37 372.71-25.63 374.11-24.9 375.33-23.84 376.55-22.78 377.48-21.46L377.48-21.46ZM360.63-9.84L368.4-20.14Q367.93-20.31 367.48-20.36 367.03-20.41 366.54-20.41L366.54-20.41Q365.17-20.41 363.97-19.91 362.76-19.41 361.87-18.48 360.98-17.55 360.46-16.25 359.95-14.94 359.95-13.31L359.95-13.31Q359.95-12.94 359.99-12.48 360.02-12.01 360.11-11.54 360.19-11.06 360.32-10.62 360.44-10.18 360.63-9.84L360.63-9.84ZM423.57-17.5L423.57-17.5Q423.57-15.09 422.95-12.85 422.32-10.62 421.18-8.68 420.03-6.74 418.44-5.14 416.85-3.54 414.9-2.39 412.95-1.25 410.71-0.62 408.48 0 406.06 0L406.06 0 395.52 0 395.52-35.01 406.06-35.01Q408.48-35.01 410.71-34.39 412.95-33.76 414.9-32.62 416.85-31.47 418.44-29.87 420.03-28.27 421.18-26.33 422.32-24.39 422.95-22.16 423.57-19.92 423.57-17.5ZM416.56-17.5L416.56-17.5Q416.56-19.68 415.74-21.58 414.93-23.49 413.5-24.91 412.07-26.34 410.15-27.17 408.24-28 406.06-28L406.06-28 402.57-28 402.57-7.01 406.06-7.01Q408.24-7.01 410.15-7.82 412.07-8.64 413.5-10.07 414.93-11.5 415.74-13.42 416.56-15.33 416.56-17.5ZM450.4-21.46L437.9-6.4Q438.29-6.27 438.68-6.24 439.07-6.2 439.46-6.2L439.46-6.2Q440.44-6.2 441.34-6.47 442.24-6.74 443.04-7.24 443.83-7.74 444.45-8.46 445.07-9.18 445.47-10.06L445.47-10.06 450.35-5.15Q449.42-3.83 448.21-2.78 447-1.73 445.6-1 444.2-0.27 442.65 0.11 441.1 0.49 439.46 0.49L439.46 0.49Q436.7 0.49 434.27-0.54 431.84-1.56 430.02-3.39 428.2-5.22 427.15-7.75 426.1-10.28 426.1-13.31L426.1-13.31Q426.1-16.41 427.15-18.97 428.2-21.53 430.02-23.34 431.84-25.15 434.27-26.15 436.7-27.15 439.46-27.15L439.46-27.15Q441.1-27.15 442.66-26.76 444.22-26.37 445.62-25.63 447.03-24.9 448.25-23.84 449.47-22.78 450.4-21.46L450.4-21.46ZM433.55-9.84L441.31-20.14Q440.85-20.31 440.4-20.36 439.95-20.41 439.46-20.41L439.46-20.41Q438.09-20.41 436.88-19.91 435.68-19.41 434.78-18.48 433.89-17.55 433.38-16.25 432.87-14.94 432.87-13.31L432.87-13.31Q432.87-12.94 432.9-12.48 432.94-12.01 433.03-11.54 433.11-11.06 433.23-10.62 433.36-10.18 433.55-9.84L433.55-9.84ZM468.09 0L468.09 0 452.86 0 452.86-6.64 468.09-6.64Q468.78-6.64 469.27-7.13 469.75-7.62 469.75-8.3L469.75-8.3Q469.75-9.01 469.27-9.23 468.78-9.45 468.09-9.45L468.09-9.45 461.16-9.45Q459.43-9.45 457.91-10.11 456.4-10.77 455.28-11.9 454.15-13.04 453.51-14.55 452.86-16.06 452.86-17.8L452.86-17.8Q452.86-19.53 453.51-21.04 454.15-22.56 455.28-23.68 456.4-24.8 457.91-25.45 459.43-26.1 461.16-26.1L461.16-26.1 474.66-26.1 474.66-19.46 461.16-19.46Q460.48-19.46 459.99-18.97 459.5-18.48 459.5-17.8L459.5-17.8Q459.5-17.09 459.99-16.59 460.48-16.09 461.16-16.09L461.16-16.09 468.09-16.09Q469.8-16.09 471.32-15.52 472.83-14.94 473.95-13.92 475.08-12.89 475.74-11.45 476.4-10.01 476.4-8.3L476.4-8.3Q476.4-6.57 475.74-5.07 475.08-3.56 473.95-2.43 472.83-1.29 471.32-0.65 469.8 0 468.09 0ZM487.79-33.25L487.79-33.25Q487.79-32.32 487.44-31.52 487.09-30.71 486.48-30.11 485.87-29.52 485.05-29.16 484.23-28.81 483.3-28.81L483.3-28.81Q482.37-28.81 481.56-29.16 480.74-29.52 480.14-30.11 479.54-30.71 479.19-31.52 478.83-32.32 478.83-33.25L478.83-33.25Q478.83-34.16 479.19-34.97 479.54-35.79 480.14-36.39 480.74-36.99 481.56-37.34 482.37-37.7 483.3-37.7L483.3-37.7Q484.23-37.7 485.05-37.34 485.87-36.99 486.48-36.39 487.09-35.79 487.44-34.97 487.79-34.16 487.79-33.25ZM486.65-26.15L486.65 0 479.93 0 479.93-26.15 486.65-26.15ZM510.33-13.31L510.33-13.31Q510.33-14.67 509.8-15.95 509.28-17.24 508.37-18.23 507.47-19.21 506.26-19.81 505.05-20.41 503.69-20.41L503.69-20.41Q502.32-20.41 501.11-19.95 499.9-19.48 499.01-18.58 498.12-17.68 497.61-16.35 497.09-15.01 497.09-13.31L497.09-13.31Q497.09-11.67 497.61-10.36 498.12-9.06 499.01-8.13 499.9-7.2 501.11-6.7 502.32-6.2 503.69-6.2L503.69-6.2Q505.05-6.2 506.26-6.8 507.47-7.4 508.37-8.39 509.28-9.38 509.8-10.66 510.33-11.94 510.33-13.31ZM517.04-26.1L517.04-3.3Q517.04-0.54 515.99 1.88 514.94 4.3 513.12 6.1 511.3 7.91 508.87 8.96 506.44 10.01 503.69 10.01L503.69 10.01 500.34 9.96 500.34 3.3 503.64 3.34Q505.2 3.34 506.3 2.94 507.4 2.54 508.15 1.84 508.91 1.15 509.36 0.24 509.81-0.66 510.08-1.66L510.08-1.66Q509.69-1.03 508.96-0.62 508.23-0.22 507.34 0.04 506.44 0.29 505.48 0.39 504.52 0.49 503.69 0.49L503.69 0.49Q500.93 0.49 498.5-0.46 496.07-1.42 494.25-3.19 492.43-4.96 491.38-7.52 490.33-10.08 490.33-13.31L490.33-13.31Q490.33-16.26 491.38-18.8 492.43-21.34 494.25-23.19 496.07-25.05 498.5-26.1 500.93-27.15 503.69-27.15L503.69-27.15Q504.95-27.15 506.2-26.83 507.45-26.51 508.62-25.95 509.79-25.39 510.85-24.63 511.91-23.88 512.84-23L512.84-23 515.43-26.1 517.04-26.1ZM528.78-14.94L528.78 0 522.12 0 522.12-26.15 523.73-26.15 525.92-23.61Q527.54-25.07 529.57-25.87 531.61-26.66 533.83-26.66L533.83-26.66Q536.23-26.66 538.35-25.74 540.47-24.83 542.06-23.23 543.65-21.63 544.56-19.49 545.48-17.36 545.48-14.94L545.48-14.94 545.48 0 538.81 0 538.81-14.94Q538.81-15.97 538.42-16.88 538.03-17.8 537.35-18.48 536.67-19.17 535.76-19.56 534.86-19.95 533.83-19.95L533.83-19.95Q532.78-19.95 531.86-19.56 530.93-19.17 530.25-18.48 529.56-17.8 529.17-16.88 528.78-15.97 528.78-14.94L528.78-14.94ZM575.53-26.1L575.53 0 573.92 0 571.33-3.59Q570.38-2.73 569.32-1.99 568.26-1.25 567.08-0.7 565.91-0.15 564.68 0.17 563.45 0.49 562.18 0.49L562.18 0.49Q559.42 0.49 556.99-0.44 554.56-1.37 552.74-3.14 550.92-4.91 549.87-7.47 548.82-10.03 548.82-13.31L548.82-13.31Q548.82-16.36 549.87-18.91 550.92-21.46 552.74-23.29 554.56-25.12 556.99-26.14 559.42-27.15 562.18-27.15L562.18-27.15Q563.45-27.15 564.69-26.83 565.94-26.51 567.11-25.95 568.28-25.39 569.34-24.63 570.4-23.88 571.33-23L571.33-23 573.92-26.1 575.53-26.1ZM568.82-13.31L568.82-13.31Q568.82-14.67 568.29-15.95 567.77-17.24 566.86-18.23 565.96-19.21 564.75-19.81 563.54-20.41 562.18-20.41L562.18-20.41Q560.81-20.41 559.6-19.95 558.39-19.48 557.5-18.58 556.61-17.68 556.1-16.35 555.58-15.01 555.58-13.31L555.58-13.31Q555.58-11.6 556.1-10.27 556.61-8.94 557.5-8.03 558.39-7.13 559.6-6.67 560.81-6.2 562.18-6.2L562.18-6.2Q563.54-6.2 564.75-6.8 565.96-7.4 566.86-8.39 567.77-9.38 568.29-10.66 568.82-11.94 568.82-13.31ZM606.78-13.31L606.78-13.31Q606.78-10.23 605.73-7.69 604.68-5.15 602.87-3.33 601.07-1.51 598.64-0.51 596.21 0.49 593.42 0.49L593.42 0.49Q590.67 0.49 588.24-0.54 585.81-1.56 583.99-3.39 582.17-5.22 581.12-7.75 580.07-10.28 580.07-13.31L580.07-13.31 580.07-36.55 586.76-36.55 586.76-24.34Q587.3-25.02 588.07-25.56 588.83-26.1 589.73-26.44 590.62-26.78 591.57-26.97 592.52-27.15 593.42-27.15L593.42-27.15Q596.21-27.15 598.64-26.11 601.07-25.07 602.87-23.22 604.68-21.36 605.73-18.84 606.78-16.31 606.78-13.31ZM600.06-13.31L600.06-13.31Q600.06-14.82 599.54-16.13 599.01-17.43 598.11-18.38 597.21-19.34 596-19.87 594.79-20.41 593.42-20.41L593.42-20.41Q592.06-20.41 590.85-19.81 589.64-19.21 588.74-18.23 587.83-17.24 587.32-15.95 586.81-14.67 586.81-13.31L586.81-13.31Q586.81-11.79 587.32-10.5 587.83-9.2 588.74-8.25 589.64-7.3 590.85-6.75 592.06-6.2 593.42-6.2L593.42-6.2Q594.79-6.2 596-6.75 597.21-7.3 598.11-8.25 599.01-9.2 599.54-10.5 600.06-11.79 600.06-13.31ZM617.18-36.55L617.18 0 610.46 0 610.46-36.55 617.18-36.55ZM645.15-21.46L632.65-6.4Q633.04-6.27 633.43-6.24 633.82-6.2 634.21-6.2L634.21-6.2Q635.19-6.2 636.09-6.47 637-6.74 637.79-7.24 638.58-7.74 639.21-8.46 639.83-9.18 640.22-10.06L640.22-10.06 645.1-5.15Q644.18-3.83 642.97-2.78 641.76-1.73 640.35-1 638.95-0.27 637.4 0.11 635.85 0.49 634.21 0.49L634.21 0.49Q631.46 0.49 629.03-0.54 626.6-1.56 624.78-3.39 622.96-5.22 621.91-7.75 620.86-10.28 620.86-13.31L620.86-13.31Q620.86-16.41 621.91-18.97 622.96-21.53 624.78-23.34 626.6-25.15 629.03-26.15 631.46-27.15 634.21-27.15L634.21-27.15Q635.85-27.15 637.41-26.76 638.98-26.37 640.38-25.63 641.78-24.9 643-23.84 644.22-22.78 645.15-21.46L645.15-21.46ZM628.31-9.84L636.07-20.14Q635.61-20.31 635.15-20.36 634.7-20.41 634.21-20.41L634.21-20.41Q632.85-20.41 631.64-19.91 630.43-19.41 629.54-18.48 628.65-17.55 628.14-16.25 627.62-14.94 627.62-13.31L627.62-13.31Q627.62-12.94 627.66-12.48 627.7-12.01 627.78-11.54 627.87-11.06 627.99-10.62 628.11-10.18 628.31-9.84L628.31-9.84Z" opacity="1" transform="matrix(1,0,0,1,0,0)" fill="#000000" class="slogan-text-1" data-fill-palette-color="secondary" id="text-1"></path></svg></g></svg></g></svg></g></svg></g><g><svg viewBox="0 0 162.4326667507456 151.25223644192798" height="151.25223644192798" width="162.4326667507456"><g><svg xmlns="http://www.w3.org/2000/svg" xmlns:xlink="http://www.w3.org/1999/xlink" version="1.1" x="0" y="0" viewBox="9.700000000000001 15.899999999999999 77.00000000000001 71.69999999999999" enable-background="new 0 0 100 100" xml:space="preserve" height="151.25223644192798" width="162.4326667507456" class="icon-icon-0" data-fill-palette-color="accent" id="icon-0"><g fill="#fe4f32" data-fill-palette-color="accent"><path d="M64.8 44.3c-2.4 0-4.7-1-6.4-2.8-3.2-3.5-3-9 0.5-12.2 1.6-1.5 3.7-2.3 5.9-2.3 2.4 0 4.7 1 6.4 2.8 3.2 3.5 3 9-0.5 12.2C69 43.5 67 44.3 64.8 44.3zM64.8 29.9c-1.5 0-2.9 0.5-3.9 1.5-1.1 1-1.8 2.5-1.9 4-0.1 1.5 0.5 3 1.5 4.2 1.1 1.2 2.6 1.9 4.3 1.9 1.5 0 2.9-0.5 3.9-1.5 2.3-2.2 2.5-5.8 0.3-8.2C67.9 30.5 66.4 29.9 64.8 29.9z" fill="#000000" data-fill-palette-color="accent"></path></g><g fill="#fe4f32" data-fill-palette-color="accent"><path d="M56.5 80.4l-9.6-10.4c-2.2 1.6-4.8 2.5-7.5 2.5-3.5 0-6.9-1.5-9.3-4.1-4.4-4.8-4.4-12.1-0.3-16.9L20.2 41l1-1c5.5-5 12.8-7.6 20.2-7 14.2-14.2 25.7-17.1 39.5-17.1 1.4 0 2.8 0 4.4 0.1l1.4 0.1-0.1 1.4C86 33.8 82.4 46.1 66.2 59.9c0 7.4-3.2 14.5-8.6 19.5L56.5 80.4zM47.1 66l9.5 10.3c4.4-4.6 6.8-10.7 6.7-17.1l0-0.7 0.5-0.4c15.5-13 19.1-24 19.9-39.4-1 0-1.9 0-2.8 0-13.2 0-24.2 2.8-38 16.8L42.5 36l-0.7-0.1c-0.8-0.1-1.6-0.1-2.4-0.1-5.6 0-10.9 1.9-15.2 5.4l9.5 10.3-1 1c-4 3.7-4.2 9.9-0.6 13.9 1.9 2 4.5 3.2 7.2 3.2 2.5 0 4.8-0.9 6.7-2.6L47.1 66z" fill="#000000" data-fill-palette-color="accent"></path></g><g fill="#fe4f32" data-fill-palette-color="accent"><g fill="#fe4f32" data-fill-palette-color="accent"><g fill="#fe4f32" data-fill-palette-color="accent"><path d="M27.2 70.1c2.4 2.4 1.5 6.9-1.9 10.3-4 4-13.6 6.6-14 6.8l-1.6 0.4 0.5-1.6c0.1-0.4 3-10.3 6.8-14 2-2 4.6-3.2 6.8-3.2C25.1 68.8 26.3 69.2 27.2 70.1z" fill="#000000" data-fill-palette-color="accent"></path></g></g></g></svg></g></svg></g></svg></g><defs></defs></svg><rect width="395.52" height="100.6186133720803" fill="none" stroke="none" visibility="hidden"></rect></g></svg></g></svg>