<svg xmlns="http://www.w3.org/2000/svg" version="1.1" xmlns:xlink="http://www.w3.org/1999/xlink" xmlns:svgjs="http://svgjs.dev/svgjs" width="128" height="128" viewBox="0 0 128 128"><g transform="matrix(0.8046875,0,0,0.8046875,12.760752631578946,16.072101884496284)"><svg viewBox="0 0 95 89" data-background-color="#ffffff" preserveAspectRatio="xMidYMid meet" height="119" width="128" xmlns="http://www.w3.org/2000/svg" xmlns:xlink="http://www.w3.org/1999/xlink"><g id="tight-bounds" transform="matrix(1,0,0,1,-0.24049999999999727,0.04553441558442728)"><svg viewBox="0 0 95.481 88.90893116883115" height="88.90893116883115" width="95.481"><g><svg viewBox="0 0 95.481 88.90893116883115" height="88.90893116883115" width="95.481"><g><svg viewBox="0 0 95.481 88.90893116883115" height="88.90893116883115" width="95.481"><g id="textblocktransform"><svg viewBox="0 0 95.481 88.90893116883115" height="88.90893116883115" width="95.481" id="textblock"><g><svg viewBox="0 0 95.481 88.90893116883115" height="88.90893116883115" width="95.481"><g><svg viewBox="0 0 95.481 88.90893116883115" height="88.90893116883115" width="95.481"><g><svg xmlns="http://www.w3.org/2000/svg" xmlns:xlink="http://www.w3.org/1999/xlink" version="1.1" x="0" y="0" viewBox="9.700000000000001 15.899999999999999 77.00000000000001 71.69999999999999" enable-background="new 0 0 100 100" xml:space="preserve" height="88.90893116883115" width="95.481" class="icon-icon-0" data-fill-palette-color="accent" id="icon-0"><g fill="#fe4f32" data-fill-palette-color="accent"><path d="M64.8 44.3c-2.4 0-4.7-1-6.4-2.8-3.2-3.5-3-9 0.5-12.2 1.6-1.5 3.7-2.3 5.9-2.3 2.4 0 4.7 1 6.4 2.8 3.2 3.5 3 9-0.5 12.2C69 43.5 67 44.3 64.8 44.3zM64.8 29.9c-1.5 0-2.9 0.5-3.9 1.5-1.1 1-1.8 2.5-1.9 4-0.1 1.5 0.5 3 1.5 4.2 1.1 1.2 2.6 1.9 4.3 1.9 1.5 0 2.9-0.5 3.9-1.5 2.3-2.2 2.5-5.8 0.3-8.2C67.9 30.5 66.4 29.9 64.8 29.9z" fill="#fe4f32" data-fill-palette-color="accent"></path></g><g fill="#fe4f32" data-fill-palette-color="accent"><path d="M56.5 80.4l-9.6-10.4c-2.2 1.6-4.8 2.5-7.5 2.5-3.5 0-6.9-1.5-9.3-4.1-4.4-4.8-4.4-12.1-0.3-16.9L20.2 41l1-1c5.5-5 12.8-7.6 20.2-7 14.2-14.2 25.7-17.1 39.5-17.1 1.4 0 2.8 0 4.4 0.1l1.4 0.1-0.1 1.4C86 33.8 82.4 46.1 66.2 59.9c0 7.4-3.2 14.5-8.6 19.5L56.5 80.4zM47.1 66l9.5 10.3c4.4-4.6 6.8-10.7 6.7-17.1l0-0.7 0.5-0.4c15.5-13 19.1-24 19.9-39.4-1 0-1.9 0-2.8 0-13.2 0-24.2 2.8-38 16.8L42.5 36l-0.7-0.1c-0.8-0.1-1.6-0.1-2.4-0.1-5.6 0-10.9 1.9-15.2 5.4l9.5 10.3-1 1c-4 3.7-4.2 9.9-0.6 13.9 1.9 2 4.5 3.2 7.2 3.2 2.5 0 4.8-0.9 6.7-2.6L47.1 66z" fill="#fe4f32" data-fill-palette-color="accent"></path></g><g fill="#fe4f32" data-fill-palette-color="accent"><g fill="#fe4f32" data-fill-palette-color="accent"><g fill="#fe4f32" data-fill-palette-color="accent"><path d="M27.2 70.1c2.4 2.4 1.5 6.9-1.9 10.3-4 4-13.6 6.6-14 6.8l-1.6 0.4 0.5-1.6c0.1-0.4 3-10.3 6.8-14 2-2 4.6-3.2 6.8-3.2C25.1 68.8 26.3 69.2 27.2 70.1z" fill="#fe4f32" data-fill-palette-color="accent"></path></g></g></g></svg></g></svg></g></svg></g></svg></g></svg></g></svg></g><defs></defs></svg><rect width="95.481" height="88.90893116883115" fill="none" stroke="none" visibility="hidden"></rect></g></svg></g></svg>